{"title":"Architects of Control","uid":4988195,"size":1868172769,"categoryP":"video","categoryS":"movies","magnet":"?xt=urn:btih:e0ef0071e8c644bd167d6dc826c3dc289d59f01b&amp;dn=Architects+of+Control&amp;tr=udp%3A%2F%2Ftracker.openbittorrent.com%3A80&amp;tr=udp%3A%2F%2Fopen.demonii.com%3A1337&amp;tr=udp%3A%2F%2Ftracker.coppersurfer.tk%3A6969&amp;tr=udp%3A%2F%2Fexodus.desync.com%3A6969","seeders":0,"leechers":1,"uploader":"Ghis1964","files":-1,"time":1246886822,"description":"Discover by yourself, on yourself, for yourself.\nWhat are you anyway? are you a brain who thinks what has been already thought for you?\n\nDo it for yourself\n\n\nTrailer; &lt;a href=&quot;\nhttp://www.architectsofcontrol.com/teaser/index.html&quot; rel=&quot;nofollow&quot; target=&quot;_NEW&quot;&gt;\nhttp://www.architectsofcontrol.com/teaser/index.html&lt;/a&gt;\n\n\n--------------------------------------------------------------------------------\n\nGeneral\nComplete name                    :Architects of Control - Part 1.divx\nFormat                           : DivX\nFormat/Info                      : Hack of AVI\nFile size                        : 791 MiB\nDuration                         : 1h 12mn\nOverall bit rate                 : 1 534 Kbps\n\nVideo\nFormat                           : MPEG-4 Visual\nFormat settings, BVOP            : Yes\nFormat settings, QPel            : No\nFormat settings, GMC             : No warppoints\nFormat settings, Matrix          : Default (H.263)\nMuxing mode                      : Packed bitstream\nCodec ID                         : DX50\nCodec ID/Hint                    : DivX 5\nDuration                         : 1h 12mn\nBit rate                         : 1 300 Kbps\nWidth                            : 720 pixels\nHeight                           : 576 pixels\nDisplay aspect ratio             : 5/4\nFrame rate                       : 25.000 fps\nStandard                         : PAL\nResolution                       : 24 bits\nColorimetry                      : 4:2:0\nScan type                        : Progressive\nBits/(Pixel*Frame)               : 0.125\nStream size                      : 670 MiB (85%)\nTitle                            : Video\nWriting library                  : DivX 6.4.0 (UTC 2006-10-03)\n\nAudio\nFormat                           : MPEG Audio\nFormat version                   : Version 1\nFormat profile                   : Layer 2\nCodec ID                         : 50\nCodec ID/Hint                    : MP1\nDuration                         : 1h 12mn\nBit rate mode                    : Constant\nBit rate                         : 224 Kbps\nChannel(s)                       : 2 channels\nSampling rate                    : 48.0 KHz\nResolution                       : 16 bits\nStream size                      : 115 MiB (15%)\nAlignment                        : Split accross interleaves\nInterleave, duration             : 40 ms (1.00 video frame)\nInterleave, preload duration     : 500 ms\n\n\nGeneral\nComplete name                    :Architects of Control - Part 2.divx\nFormat                           : DivX\nFormat/Info                      : Hack of AVI\nFile size                        : 991 MiB\nDuration                         : 1h 29mn\nOverall bit rate                 : 1 555 Kbps\n\nVideo\nFormat                           : MPEG-4 Visual\nFormat settings, BVOP            : Yes\nFormat settings, QPel            : No\nFormat settings, GMC             : No warppoints\nFormat settings, Matrix          : Default (H.263)\nMuxing mode                      : Packed bitstream\nCodec ID                         : DX50\nCodec ID/Hint                    : DivX 5\nDuration                         : 1h 29mn\nBit rate                         : 1 321 Kbps\nWidth                            : 720 pixels\nHeight                           : 576 pixels\nDisplay aspect ratio             : 5/4\nFrame rate                       : 25.000 fps\nStandard                         : PAL\nResolution                       : 24 bits\nColorimetry                      : 4:2:0\nScan type                        : Progressive\nBits/(Pixel*Frame)               : 0.127\nStream size                      : 842 MiB (85%)\nTitle                            : Video\nWriting library                  : DivX 6.4.0 (UTC 2006-10-03)\n\nAudio\nFormat                           : MPEG Audio\nFormat version                   : Version 1\nFormat profile                   : Layer 2\nCodec ID                         : 50\nCodec ID/Hint                    : MP1\nDuration                         : 1h 29mn\nBit rate mode                    : Constant\nBit rate                         : 224 Kbps\nChannel(s)                       : 2 channels\nSampling rate                    : 48.0 KHz\nResolution                       : 16 bits\nStream size                      : 143 MiB (14%)\nAlignment                        : Split accross interleaves\nInterleave, duration             : 40 ms (1.00 video frame)\nInterleave, preload duration     : 500 ms\n\n\nScreen shots; &lt;a href=&quot;\nhttp://bayimg.com/hAemhaaCN&quot; rel=&quot;nofollow&quot; target=&quot;_NEW&quot;&gt;\nhttp://bayimg.com/hAemhaaCN&lt;/a&gt; &lt;a href=&quot;\nhttp://bayimg.com/IAemCAAcn&quot; rel=&quot;nofollow&quot; target=&quot;_NEW&quot;&gt;\nhttp://bayimg.com/IAemCAAcn&lt;/a&gt;","torrent":{"xt":"urn:btih:e0ef0071e8c644bd167d6dc826c3dc289d59f01b","amp;dn":"Architects+of+Control","amp;tr":["udp%3A%2F%2Ftracker.openbittorrent.com%3A80","udp%3A%2F%2Fopen.demonii.com%3A1337","udp%3A%2F%2Ftracker.coppersurfer.tk%3A6969","udp%3A%2F%2Fexodus.desync.com%3A6969"],"infoHash":"e0ef0071e8c644bd167d6dc826c3dc289d59f01b","infoHashBuffer":{"type":"Buffer","data":[224,239,0,113,232,198,68,189,22,125,109,200,38,195,220,40,157,89,240,27]},"announce":[],"urlList":[]}}